<svg viewBox="0 0 100 120" xmlns="http://www.w3.org/2000/svg" fill="none" stroke="currentColor" stroke-width="3">
    <path d="M50 5 L95 25 V65 C95 95 50 115 50 115 C50 115 5 95 5 65 V25 L50 5 Z" fill="#0ea5e9" stroke="#0284c7" stroke-width="4"/> <line x1="50" y1="30" x2="50" y2="90" stroke="#ffffff" stroke-width="2.5" stroke-linecap="round"/>
    <line x1="30" y1="50" x2="70" y2="50" stroke="#ffffff" stroke-width="2.5" stroke-linecap="round"/>
    <line x1="30" y1="70" x2="70" y2="70" stroke="#ffffff" stroke-width="2.5" stroke-linecap="round"/>

    <line x1="50" y1="30" x2="40" y2="40" stroke="#ffffff" stroke-width="1.5" stroke-linecap="round"/>
    <line x1="50" y1="30" x2="60" y2="40" stroke="#ffffff" stroke-width="1.5" stroke-linecap="round"/>

    <line x1="50" y1="90" x2="40" y2="80" stroke="#ffffff" stroke-width="1.5" stroke-linecap="round"/>
    <line x1="50" y1="90" x2="60" y2="80" stroke="#ffffff" stroke-width="1.5" stroke-linecap="round"/>

    <line x1="30" y1="50" x2="40" y2="45" stroke="#ffffff" stroke-width="1.5" stroke-linecap="round"/>
    <line x1="30" y1="50" x2="40" y2="55" stroke="#ffffff" stroke-width="1.5" stroke-linecap="round"/>

    <line x1="70" y1="50" x2="60" y2="45" stroke="#ffffff" stroke-width="1.5" stroke-linecap="round"/>
    <line x1="70" y1="50" x2="60" y2="55" stroke="#ffffff" stroke-width="1.5" stroke-linecap="round"/>

    <line x1="30" y1="70" x2="40" y2="65" stroke="#ffffff" stroke-width="1.5" stroke-linecap="round"/>
    <line x1="30" y1="70" x2="40" y2="75" stroke="#ffffff" stroke-width="1.5" stroke-linecap="round"/>

    <line x1="70" y1="70" x2="60" y2="65" stroke="#ffffff" stroke-width="1.5" stroke-linecap="round"/>
    <line x1="70" y1="70" x2="60" y2="75" stroke="#ffffff" stroke-width="1.5" stroke-linecap="round"/>

    <circle cx="50" cy="30" r="2.5" fill="#ffffff" stroke="none"/>
    <circle cx="50" cy="50" r="2.5" fill="#ffffff" stroke="none"/>
    <circle cx="50" cy="70" r="2.5" fill="#ffffff" stroke="none"/>
    <circle cx="50" cy="90" r="2.5" fill="#ffffff" stroke="none"/>
    <circle cx="30" cy="50" r="2.5" fill="#ffffff" stroke="none"/>
    <circle cx="70" cy="50" r="2.5" fill="#ffffff" stroke="none"/>
    <circle cx="30" cy="70" r="2.5" fill="#ffffff" stroke="none"/>
    <circle cx="70" cy="70" r="2.5" fill="#ffffff" stroke="none"/>
</svg>